<?xml version="1.0" encoding="UTF-8"?>
<svg version="1.1" xmlns="http://www.w3.org/2000/svg" width="560" height="560">
<path d="M0 0 C184.8 0 369.6 0 560 0 C560 184.8 560 369.6 560 560 C375.2 560 190.4 560 0 560 C0 375.2 0 190.4 0 0 Z " fill="#000000" transform="translate(0,0)"/>
<path d="M0 0 C0.79035645 0.42176514 1.58071289 0.84353027 2.39501953 1.27807617 C3.00192627 1.58261719 3.60883301 1.8871582 4.23413086 2.20092773 C5.09687622 2.67997559 5.09687622 2.67997559 5.97705078 3.16870117 C6.64905518 3.5410791 7.32105957 3.91345703 8.01342773 4.29711914 C8.73747803 4.70333496 9.46152832 5.10955078 10.20751953 5.52807617 C10.98377686 5.9613623 11.76003418 6.39464844 12.55981445 6.84106445 C20.19197704 11.12345181 27.74557378 15.53931328 35.29663086 19.96264648 C41.80678835 23.77512818 48.33787904 27.54703073 54.89501953 31.27807617 C62.27750757 35.48047998 69.62620663 39.73704526 76.95751953 44.02807617 C85.73887249 49.16670924 94.55507407 54.24121168 103.39501953 59.27807617 C113.23398881 64.88416902 123.03591584 70.55001154 132.80908203 76.27026367 C139.14953367 79.97803112 145.51190007 83.64430146 151.89501953 87.27807617 C162.47346417 93.30104001 172.98639355 99.43436779 183.49316406 105.58129883 C188.45803317 108.48436465 193.42661432 111.38106758 198.39501953 114.27807617 C196.78548949 118.41818413 194.84263135 122.23697218 192.64501953 126.09057617 C192.261604 126.76781738 191.87818848 127.44505859 191.4831543 128.14282227 C187.22230453 135.63761145 182.86358013 143.07598691 178.51074219 150.51757812 C174.08934897 158.07679284 169.71383699 165.65978947 165.39501953 173.27807617 C161.7586933 171.9035875 158.42437832 170.27372759 155.03564453 168.37182617 C154.01156494 167.79827393 152.98748535 167.22472168 151.93237305 166.63378906 C150.84754639 166.02140381 149.76271973 165.40901855 148.64501953 164.77807617 C147.51829834 164.14442139 146.39157715 163.5107666 145.23071289 162.85791016 C138.4398421 159.02807053 131.68517207 155.14472016 124.97973633 151.16748047 C118.66777428 147.42502954 112.31560352 143.75404138 105.95751953 140.09057617 C104.29668335 139.13356812 104.29668335 139.13356812 102.60229492 138.15722656 C100.33164886 136.84918141 98.06089595 135.54132169 95.79003906 134.23364258 C90.32331972 131.08475563 84.85927711 127.93123238 79.39501953 124.77807617 C77.25310326 123.54238034 75.11117613 122.30670334 72.96923828 121.07104492 C68.99039521 118.77558159 65.0117118 116.47984203 61.03323364 114.18374634 C59.24435035 113.15134139 57.45543236 112.11899661 55.66650391 111.08666992 C53.42164317 109.79121669 51.17684763 108.49565047 48.93212891 107.19995117 C47.91570312 106.61342773 46.89927734 106.0269043 45.85205078 105.42260742 C44.96493408 104.91060791 44.07781738 104.3986084 43.16381836 103.87109375 C39.91149605 101.99988283 36.65284444 100.13969041 33.39501953 98.27807617 C33.06501953 148.43807617 32.73501953 198.59807617 32.39501953 250.27807617 C9.95501953 250.27807617 -12.48498047 250.27807617 -35.60498047 250.27807617 C-35.93498047 200.11807617 -36.26498047 149.95807617 -36.60498047 98.27807617 C-45.83647267 103.47079053 -55.04146489 108.6608647 -64.16748047 114.02807617 C-72.25334997 118.76599635 -80.37420295 123.43371869 -88.54248047 128.02807617 C-95.8271949 132.12576631 -103.06872912 136.28281569 -110.25952148 140.54296875 C-115.80242781 143.82141519 -121.38491884 147.0270584 -126.97998047 150.21557617 C-133.92840801 154.17600793 -140.86948383 158.14832114 -147.79248047 162.15307617 C-148.9725769 162.83515137 -148.9725769 162.83515137 -150.17651367 163.53100586 C-155.12620863 166.39938032 -160.03614754 169.3238834 -164.89013672 172.35229492 C-166.60498047 173.27807617 -166.60498047 173.27807617 -168.60498047 173.27807617 C-168.9464209 172.67036377 -169.28786133 172.06265137 -169.63964844 171.43652344 C-178.11234047 156.36029433 -178.11234047 156.36029433 -186.79248047 141.40307617 C-187.18459717 140.73655029 -187.57671387 140.07002441 -187.98071289 139.38330078 C-190.11959765 135.75806491 -192.28770936 132.15254059 -194.47998047 128.55932617 C-194.95024658 127.78057129 -195.4205127 127.00181641 -195.9050293 126.19946289 C-196.81033859 124.70107485 -197.72388948 123.2076265 -198.64672852 121.7199707 C-199.71108639 119.9507979 -200.66818704 118.11798056 -201.60498047 116.27807617 C-200.15914692 111.94057551 -196.88654547 110.98442519 -193.04248047 108.96557617 C-191.38096975 108.06834029 -189.72088394 107.16846221 -188.06201172 106.26635742 C-187.17336426 105.78376465 -186.2847168 105.30117188 -185.36914062 104.80395508 C-180.60527713 102.17419472 -175.92085169 99.41028804 -171.22998047 96.65307617 C-162.38815378 91.46895485 -153.51075416 86.35119199 -144.60498047 81.27807617 C-134.88354341 75.73855779 -125.1960273 70.14432423 -115.53808594 64.49462891 C-105.01413422 58.34040876 -94.45117909 52.25437621 -83.88720703 46.16918945 C-78.45838105 43.04127469 -73.03178766 39.90949169 -67.60498047 36.77807617 C-65.43832464 35.52805738 -63.27165797 34.27805739 -61.10498047 33.02807617 C-60.03248047 32.40932617 -58.95998047 31.79057617 -57.85498047 31.15307617 C-54.60498047 29.27807617 -51.35498047 27.40307617 -48.10498047 25.52807617 C-47.03078857 24.90795654 -45.95659668 24.28783691 -44.84985352 23.64892578 C-42.70165361 22.41036917 -40.55209349 21.17416851 -38.40112305 19.94042969 C-33.30437763 17.01323697 -28.22522833 14.06336196 -23.19161987 11.02902222 C-20.80629922 9.5930591 -18.41316253 8.17042309 -16.01928711 6.7487793 C-14.3271546 5.7363228 -12.64657186 4.70464228 -10.96630859 3.67260742 C-9.9434375 3.06674805 -8.92056641 2.46088867 -7.86669922 1.83666992 C-6.52031372 1.02153931 -6.52031372 1.02153931 -5.14672852 0.18994141 C-2.60498047 -0.72192383 -2.60498047 -0.72192383 0 0 Z " fill="#FDFDFD" transform="translate(281.60498046875,241.721923828125)"/>
<path d="M0 0 C22.44 0 44.88 0 68 0 C68 42.57 68 85.14 68 129 C45.56 129 23.12 129 0 129 C0 86.43 0 43.86 0 0 Z " fill="#14A959" transform="translate(246,68)"/>
<path d="M0 0 C0.41137207 0.72251953 0.82274414 1.44503906 1.24658203 2.18945312 C16.09638243 28.64819797 16.09638243 28.64819797 31.67456055 54.67211914 C33 57 33 57 33 59 C10.97145851 71.61969405 -11.09402178 84.18159588 -33.30371094 96.48046875 C-35.06837945 97.47497226 -36.81755359 98.49761407 -38.54785156 99.55078125 C-39.32870117 100.01871094 -40.10955078 100.48664063 -40.9140625 100.96875 C-41.58646973 101.38576172 -42.25887695 101.80277344 -42.95166016 102.23242188 C-45.67743414 103.25385613 -47.241802 102.82935554 -50 102 C-52.46100628 100.68629558 -54.81481309 99.33251992 -57.1875 97.875 C-58.70486941 96.96211109 -60.22316093 96.05075377 -61.7421875 95.140625 C-62.57588867 94.63982422 -63.40958984 94.13902344 -64.26855469 93.62304688 C-69.41558388 90.56464054 -74.61921921 87.60392937 -79.8125 84.625 C-90.95663539 78.21677596 -102.00944758 71.66785316 -113 65 C-110.22262654 62.01114732 -107.56071009 59.98949092 -103.984375 58.0390625 C-102.99324707 57.49258057 -102.00211914 56.94609863 -100.98095703 56.38305664 C-99.91474121 55.80289795 -98.84852539 55.22273926 -97.75 54.625 C-95.47031826 53.36776195 -93.19169728 52.10859883 -90.9140625 50.84765625 C-90.33433685 50.52721848 -89.75461121 50.2067807 -89.15731812 49.87663269 C-83.4240358 46.69926837 -77.77217952 43.38965991 -72.125 40.0625 C-62.53797605 34.42763258 -52.84696713 29.00221641 -43.11083984 23.62988281 C-33.31421504 18.20950877 -23.63610276 12.59929512 -13.984375 6.92578125 C-13.12650391 6.42256348 -12.26863281 5.9193457 -11.38476562 5.40087891 C-9.87062696 4.51143095 -8.35864056 3.61830084 -6.84960938 2.72021484 C-2.22178876 0 -2.22178876 0 0 0 Z " fill="#14A959" transform="translate(447,145)"/>
<path d="M0 0 C3.41481963 1.29971251 6.56763134 2.78260467 9.74609375 4.58203125 C11.1081897 5.35148071 11.1081897 5.35148071 12.49780273 6.13647461 C13.46790283 6.68956299 14.43800293 7.24265137 15.4375 7.8125 C16.45593994 8.3907251 17.47437988 8.9689502 18.52368164 9.56469727 C27.21073765 14.51388582 35.82183609 19.58647582 44.41796875 24.69140625 C50.18008873 28.11212558 55.96173295 31.49874745 61.75 34.875 C62.73307129 35.44863281 63.71614258 36.02226562 64.72900391 36.61328125 C70.11299965 39.75009703 75.50633364 42.87013245 80.91015625 45.97265625 C81.4879483 46.30471069 82.06574036 46.63676514 82.66104126 46.97888184 C85.44178109 48.57690393 88.22386272 50.17246566 91.00878906 51.76318359 C97.79601131 55.65931229 104.43441629 59.74100205 111 64 C108.02940267 66.44851201 105.11985976 68.64189028 101.76171875 70.5234375 C100.95371826 70.98000732 100.14571777 71.43657715 99.31323242 71.90698242 C98.44674072 72.39142822 97.58024902 72.87587402 96.6875 73.375 C94.80148306 74.44034426 92.91609105 75.50679545 91.03125 76.57421875 C90.04640625 77.13157715 89.0615625 77.68893555 88.046875 78.26318359 C82.90238938 81.19570528 77.79710747 84.19477634 72.6875 87.1875 C70.67471174 88.35977442 68.66169582 89.53165805 66.6484375 90.703125 C63.12083811 92.75662805 59.6058379 94.82886292 56.1015625 96.921875 C54.67216617 97.7609129 53.24250026 98.59949182 51.8125 99.4375 C51.1836792 99.82123779 50.5548584 100.20497559 49.90698242 100.6003418 C47.36613203 102.07191618 45.62048628 103.05849637 42.64599609 102.77807617 C39.58892883 101.87912126 37.24514215 100.58221036 34.51953125 98.9296875 C33.450979 98.28805664 32.38242676 97.64642578 31.28149414 96.98535156 C30.71689484 96.64185669 30.15229553 96.29836182 29.57058716 95.94445801 C26.55055649 94.10735001 23.51631731 92.29391807 20.484375 90.4765625 C19.55094017 89.91563904 19.55094017 89.91563904 18.59864807 89.34338379 C12.29974028 85.56398815 5.93613831 81.90196635 -0.4375 78.25 C-11.37547725 71.9702538 -22.21698917 65.54193985 -33 59 C-31.70891809 55.60997279 -30.24218459 52.47839169 -28.453125 49.32421875 C-27.94450928 48.42509766 -27.43589355 47.52597656 -26.91186523 46.59960938 C-26.36344971 45.63861328 -25.81503418 44.67761719 -25.25 43.6875 C-24.681604 42.68654297 -24.11320801 41.68558594 -23.52758789 40.65429688 C-18.08909261 31.10261025 -12.5529816 21.60816123 -6.99609375 12.125 C-4.63708703 8.09825439 -2.30507717 4.05783757 0 0 Z " fill="#14A959" transform="translate(113,145)"/>
</svg>
