<svg xmlns="http://www.w3.org/2000/svg" width="400" height="400" viewBox="0 0 400 400"><g fill-rule="evenodd"><path d="M177.778 103.277v42.207h44.444V61.071h-44.444v42.206m-98.261 27.418c-9.502 16.446-10.964 19.147-10.506 19.405.294.165 11.612 6.763 25.154 14.662 20.492 11.954 24.737 14.316 25.318 14.089.724-.284 43.901-25.176 43.802-25.253-.521-.408-72.285-42.007-72.469-42.007-.143 0-5.228 8.597-11.299 19.104m192.768 1.846c-20.211 11.519-36.793 20.989-36.849 21.045-.111.111 42.883 24.98 43.783 25.325.561.216 52.451-28.871 52.278-29.304-.512-1.273-21.91-37.992-22.144-37.999-.176-.006-16.857 9.414-37.068 20.933m-84.435 48.983c-6.507 3.784-35.644 20.621-64.748 37.416-29.105 16.795-53.298 30.771-53.763 31.058l-.844.522 11.062 19.113c7.413 12.807 11.201 19.061 11.482 18.953.23-.088 19.628-11.249 43.106-24.802 23.478-13.552 42.9-24.722 43.16-24.822.416-.16.473 5.866.473 50.053v50.234h44.442l.081-50.323.081-50.322 43.449 25.083c24.72 14.271 43.568 24.963 43.727 24.805.734-.734 21.991-37.962 21.78-38.142-.134-.115-22.401-12.987-49.483-28.605a65488.815 65488.815 0 0 1-65.447-37.781c-8.913-5.161-16.323-9.369-16.467-9.351-.143.017-5.584 3.128-12.091 6.911" fill="#fbfbfb"/><path d="M190.181.351C94.829 4.892 15.599 76.939 2.096 171.383-15.208 292.414 77.977 399.971 200.16 399.996c122.236.025 215.639-108.346 197.727-229.412C382.85 68.948 293.167-4.554 190.181.351m32.201 102.926v42.366l-22.302.083-22.302.082V60.747l22.302.082 22.302.082v42.366m-95.195 29.142c19.745 11.494 35.899 21.042 35.899 21.218-.001.176-9.921 6.045-22.046 13.041L118.995 179.4 93.95 164.813c-13.775-8.022-25.166-14.703-25.314-14.845-.357-.343 21.85-38.768 22.301-38.587.193.077 16.505 9.544 36.25 21.038m193.371-2.123c5.766 10.024 10.67 18.517 10.899 18.873.443.688.681.549-44.353 25.967l-7.54 4.256-22.008-12.717c-12.105-6.995-22.008-12.862-22.006-13.038.005-.662 73.747-42.4 74.15-41.969.207.221 5.093 8.604 10.858 18.628m-98.336 56.859c11.167 6.456 40.304 23.286 64.748 37.402 31.931 18.437 44.433 25.812 44.404 26.191-.037.48-20.685 36.521-21.619 37.736-.358.464-5.222-2.261-43.728-24.499l-43.325-25.022-.081 50.143-.081 50.143h-44.76l-.081-50.192-.081-50.191-43.469 25.091-43.47 25.09-.543-.878c-3.849-6.225-21.697-37.63-21.499-37.828.147-.146 23.002-13.392 50.787-29.435a97728.394 97728.394 0 0 0 65.548-37.871L200 174.334l.959.542c.528.298 10.096 5.823 21.263 12.279" fill="#14ac5c"/><path d="m200.08 60.99 22.142.085v84.404l-22.302.086-22.302.085 22.382-.003 22.382-.004V60.911l-22.222-.003-22.222-.003 22.142.085m22.298 228.059c0 27.698.038 39.029.084 25.18.046-13.849.046-36.511 0-50.36-.046-13.849-.084-2.518-.084 25.18" fill="#56c486"/></g></svg>
