<svg xmlns="http://www.w3.org/2000/svg" width="560" height="560"><path d="M0 0h560v560H0V0Z"/><path d="M281.605 241.722 284 243l1.84.923 1.742.968 2.036 1.128 2.194 1.231 2.353 1.313c7.632 4.282 15.186 8.698 22.737 13.122 6.51 3.812 13.04 7.584 19.598 11.315a2114.9 2114.9 0 0 1 22.062 12.75A2644.15 2644.15 0 0 0 385 301a2919.135 2919.135 0 0 1 29.414 16.992c6.34 3.708 12.703 7.374 19.086 11.008 10.578 6.023 21.091 12.156 31.598 18.303 4.965 2.903 9.934 5.8 14.902 8.697-1.61 4.14-3.552 7.959-5.75 11.812l-1.162 2.053c-4.26 7.495-8.62 14.933-12.972 22.375A1943.27 1943.27 0 0 0 447 415c-3.636-1.374-6.97-3.004-10.36-4.906l-3.103-1.738-3.287-1.856-3.414-1.92a1069.8 1069.8 0 0 1-20.251-11.69c-6.312-3.743-12.664-7.414-19.023-11.078l-3.355-1.933-6.812-3.923c-5.467-3.15-10.93-6.303-16.395-9.456a424753.237 424753.237 0 0 0-18.362-10.594 141639.852 141639.852 0 0 0-12.1-6.984l-3.081-1.777-2.688-1.552c-3.253-1.871-6.511-3.731-9.769-5.593l-1 152h-68l-1-152c-9.231 5.193-18.436 10.383-27.563 15.75a1591.13 1591.13 0 0 1-24.375 14 1115.989 1115.989 0 0 0-21.717 12.515c-5.542 3.278-11.125 6.484-16.72 9.672-6.948 3.96-13.89 7.933-20.813 11.938l-2.384 1.378a526.133 526.133 0 0 0-14.713 8.821C115 415 115 415 113 415l-1.035-1.842c-8.472-15.076-8.472-15.076-17.153-30.033l-1.188-2.02a853.508 853.508 0 0 0-6.499-10.824l-1.425-2.36a447.323 447.323 0 0 0-2.742-4.48C81.894 361.674 80.937 359.84 80 358c1.446-4.338 4.718-5.294 8.562-7.313 1.662-.897 3.322-1.797 4.981-2.699l2.693-1.462c4.764-2.63 9.448-5.394 14.139-8.151A2459.636 2459.636 0 0 1 137 323a2953.086 2953.086 0 0 0 29.067-16.783c10.524-6.155 21.087-12.24 31.65-18.326 5.43-3.128 10.856-6.26 16.283-9.391a432791.108 432791.108 0 0 1 9.75-5.625l9.75-5.625 3.255-1.88c2.148-1.238 4.298-2.474 6.449-3.708 5.097-2.927 10.176-5.877 15.21-8.911 2.385-1.436 4.778-2.859 7.172-4.28a509.506 509.506 0 0 0 5.053-3.076l3.1-1.836 2.72-1.647c2.541-.912 2.541-.912 5.146-.19Z" fill="#FDFDFD"/><path d="M246 68h68v129h-68V68Zm201 77 1.247 2.19c14.85 26.458 14.85 26.458 30.428 52.482C480 202 480 202 480 204c-22.029 12.62-44.094 25.182-66.304 37.48a181.056 181.056 0 0 0-5.244 3.07c-.78.469-1.562.937-2.366 1.419l-2.038 1.263c-2.725 1.022-4.29.597-7.048-.232a135.732 135.732 0 0 1-7.188-4.125 556775677.564 556775677.564 0 0 0-7.081-4.252c-5.147-3.058-10.35-6.02-15.543-8.998A1642.724 1642.724 0 0 1 334 210c2.777-2.989 5.44-5.01 9.016-6.96l3.003-1.657 3.231-1.758a4804.03 4804.03 0 0 0 6.836-3.777l1.757-.971c5.733-3.178 11.385-6.487 17.032-9.815 9.587-5.634 19.278-11.06 29.014-16.432 9.797-5.42 19.475-11.03 29.127-16.704l2.6-1.525c1.513-.89 3.025-1.783 4.534-2.68C444.778 145 444.778 145 447 145Zm-334 0a70.04 70.04 0 0 1 9.746 4.582l2.752 1.554 2.94 1.677 3.086 1.752c8.687 4.949 17.298 10.021 25.894 15.126a2611.29 2611.29 0 0 0 17.332 10.184l2.979 1.738a2940.488 2940.488 0 0 0 16.181 9.36l1.751 1.006a3665.35 3665.35 0 0 0 8.348 4.784A430.767 430.767 0 0 1 224 209c-2.97 2.449-5.88 4.642-9.238 6.523l-2.449 1.384-2.625 1.468a5893.163 5893.163 0 0 0-8.641 4.888c-5.145 2.933-10.25 5.932-15.36 8.924a5952.123 5952.123 0 0 1-6.039 3.516 1089.15 1089.15 0 0 0-10.546 6.219l-4.29 2.516-1.905 1.162c-2.54 1.472-4.287 2.458-7.261 2.178-3.057-.899-5.4-2.196-8.126-3.848l-3.239-1.945-1.71-1.04c-3.02-1.838-6.055-3.651-9.087-5.468l-1.885-1.134c-6.3-3.779-12.663-7.441-19.036-11.093A1566.09 1566.09 0 0 1 80 204a69.247 69.247 0 0 1 4.547-9.676l1.541-2.724 1.662-2.912 1.722-3.034c5.439-9.551 10.975-19.046 16.532-28.529 2.359-4.027 4.69-8.067 6.996-12.125Z" fill="#14A959"/></svg>
